<?xml version="1.0" encoding="UTF-8" standalone="no"?>
<!DOCTYPE svg PUBLIC "-//W3C//DTD SVG 1.1//EN" "http://www.w3.org/Graphics/SVG/1.1/DTD/svg11.dtd">
<svg width="100%" height="100%" viewBox="0 0 643 92" version="1.1" xmlns="http://www.w3.org/2000/svg" xmlns:xlink="http://www.w3.org/1999/xlink" xml:space="preserve" xmlns:serif="http://www.serif.com/" style="fill-rule:evenodd;clip-rule:evenodd;stroke-linejoin:round;stroke-miterlimit:2;">
    <g transform="matrix(1,0,0,1,-352.775,-2781.16)">
        <g>
            <g transform="matrix(1.24966,0,0,1.24966,-6.33445,2689.96)">
                <path d="M373.409,132.158L383.075,132.158L383.075,91.692L398.675,91.692L398.675,83.492L357.809,83.492L357.809,91.692L373.409,91.692L373.409,132.158Z" style="fill:white;fill-rule:nonzero;"/>
                <path d="M412.142,132.825C416.542,132.825 421.209,132.025 424.542,130.692L423.475,123.692C420.209,124.892 415.542,125.692 411.742,125.692C405.542,125.692 402.342,123.292 401.809,118.158L426.142,118.158C426.209,117.358 426.275,115.558 426.275,114.225C426.275,103.158 420.409,96.825 410.009,96.825C399.209,96.825 392.742,103.625 392.742,114.825C392.742,126.358 399.675,132.825 412.142,132.825ZM401.809,111.825C402.409,106.292 405.142,103.492 410.009,103.492C414.675,103.492 417.209,106.225 417.675,111.825L401.809,111.825Z" style="fill:white;fill-rule:nonzero;"/>
                <path d="M450.009,132.825C454.142,132.825 457.542,132.092 460.942,130.292L459.475,123.292C456.342,124.958 453.542,125.692 450.675,125.692C443.875,125.692 440.075,121.758 440.075,114.825C440.075,107.892 443.875,103.958 450.675,103.958C453.542,103.958 456.342,104.692 459.475,106.358L460.942,99.358C457.542,97.558 454.142,96.825 450.009,96.825C437.809,96.825 430.742,103.425 430.742,114.825C430.742,126.225 437.809,132.825 450.009,132.825Z" style="fill:white;fill-rule:nonzero;"/>
                <path d="M468.809,132.158L478.009,132.158L478.009,111.758C478.009,107.492 481.409,104.358 486.209,104.358C490.475,104.358 492.409,106.892 492.342,112.625L492.342,132.158L501.475,132.158L501.475,110.825C501.542,101.158 497.742,96.825 489.275,96.825C484.475,96.825 481.009,98.292 478.142,101.558L478.009,101.558L478.009,83.492L468.809,83.492L468.809,132.158Z" style="fill:white;fill-rule:nonzero;"/>
                <path d="M509.342,132.158L518.542,132.158L518.542,111.692C518.542,107.492 521.942,104.358 526.742,104.358C531.009,104.358 532.875,106.892 532.875,112.625L532.875,132.158L542.009,132.158L542.009,110.825C542.009,101.158 538.209,96.825 529.809,96.825C524.809,96.825 521.142,98.358 518.275,101.558L518.142,101.558L518.075,97.492L509.342,97.492L509.342,132.158Z" style="fill:white;fill-rule:nonzero;"/>
                <path d="M565.409,132.825C576.742,132.825 583.142,126.358 583.142,114.825C583.142,103.292 576.742,96.825 565.409,96.825C554.009,96.825 547.609,103.292 547.609,114.825C547.609,126.358 554.009,132.825 565.409,132.825ZM565.409,125.692C559.742,125.692 556.742,122.025 556.742,114.825C556.742,107.625 559.742,103.958 565.409,103.958C571.009,103.958 574.009,107.625 574.009,114.825C574.009,122.025 571.009,125.692 565.409,125.692Z" style="fill:white;fill-rule:nonzero;"/>
                <path d="M601.742,132.825C610.809,132.825 616.475,128.825 616.475,122.358C616.475,116.092 611.142,112.958 602.742,110.958C597.942,109.892 596.609,108.958 596.609,107.092C596.609,104.958 598.675,103.958 603.142,103.958C606.609,103.958 610.142,104.558 614.142,105.892L615.275,98.892C611.209,97.558 606.275,96.825 601.942,96.825C592.475,96.825 587.342,100.292 587.342,106.825C587.342,113.025 592.275,116.025 600.875,118.092C605.809,119.225 607.142,120.158 607.142,122.158C607.142,124.558 605.142,125.692 600.742,125.692C596.875,125.692 592.875,124.892 588.675,123.358L587.542,130.358C591.075,131.825 597.009,132.825 601.742,132.825Z" style="fill:white;fill-rule:nonzero;"/>
                <path d="M643.142,96.825C638.542,96.825 634.675,98.425 631.875,101.558L631.742,101.558L631.675,97.492L622.942,97.492L622.942,146.158L632.142,146.158L632.142,128.092L632.275,128.092C634.942,131.225 638.609,132.825 643.142,132.825C652.275,132.825 657.609,126.225 657.609,114.825C657.609,103.425 652.275,96.825 643.142,96.825ZM640.409,104.158C645.675,104.158 648.675,107.958 648.675,114.825C648.675,121.692 645.675,125.492 640.409,125.492C635.609,125.492 632.142,122.292 632.142,117.892L632.142,111.758C632.142,107.358 635.609,104.158 640.409,104.158Z" style="fill:white;fill-rule:nonzero;"/>
                <path d="M664.075,132.158L673.275,132.158L673.275,111.758C673.275,107.492 676.675,104.358 681.475,104.358C685.742,104.358 687.675,106.892 687.609,112.625L687.609,132.158L696.742,132.158L696.742,110.825C696.809,101.158 693.009,96.825 684.542,96.825C679.742,96.825 676.275,98.292 673.409,101.558L673.275,101.558L673.275,83.492L664.075,83.492L664.075,132.158Z" style="fill:white;fill-rule:nonzero;"/>
                <path d="M721.742,132.825C726.142,132.825 730.809,132.025 734.142,130.692L733.075,123.692C729.809,124.892 725.142,125.692 721.342,125.692C715.142,125.692 711.942,123.292 711.409,118.158L735.742,118.158C735.809,117.358 735.875,115.558 735.875,114.225C735.875,103.158 730.009,96.825 719.609,96.825C708.809,96.825 702.342,103.625 702.342,114.825C702.342,126.358 709.275,132.825 721.742,132.825ZM711.409,111.825C712.009,106.292 714.742,103.492 719.609,103.492C724.275,103.492 726.809,106.225 727.275,111.825L711.409,111.825Z" style="fill:white;fill-rule:nonzero;"/>
                <path d="M742.275,132.158L751.542,132.158L751.542,116.158C751.542,109.758 758.209,104.625 766.542,104.625L766.542,96.825C760.342,96.825 754.809,99.425 751.342,103.958L751.209,103.958L751.075,97.492L742.275,97.492L742.275,132.158Z" style="fill:white;fill-rule:nonzero;"/>
                <path d="M787.009,132.825C791.409,132.825 796.075,132.025 799.409,130.692L798.342,123.692C795.075,124.892 790.409,125.692 786.609,125.692C780.409,125.692 777.209,123.292 776.675,118.158L801.009,118.158C801.075,117.358 801.142,115.558 801.142,114.225C801.142,103.158 795.275,96.825 784.875,96.825C774.075,96.825 767.609,103.625 767.609,114.825C767.609,126.358 774.542,132.825 787.009,132.825ZM776.675,111.825C777.275,106.292 780.009,103.492 784.875,103.492C789.542,103.492 792.075,106.225 792.542,111.825L776.675,111.825Z" style="fill:white;fill-rule:nonzero;"/>
            </g>
            <g transform="matrix(0.718447,0,0,0.718447,264.406,2615.92)">
                <path d="M161.529,331.35C139.376,325.593 123,305.444 123,281.5C123,253.076 146.076,230 174.5,230C202.924,230 226,253.076 226,281.5C226,305.444 209.624,325.593 187.471,331.35L187.471,307.157L196.515,302.032C198.424,304.324 201.298,305.783 204.511,305.783C210.252,305.783 214.913,301.122 214.913,295.381C214.913,289.64 210.252,284.979 204.511,284.979C198.769,284.979 194.108,289.64 194.108,295.381C194.108,295.744 194.127,296.103 194.163,296.456L187.471,300.248L187.471,281.721L196.515,276.596C198.424,278.887 201.298,280.347 204.511,280.347C210.252,280.347 214.913,275.686 214.913,269.944C214.913,264.203 210.252,259.542 204.511,259.542C198.769,259.542 194.108,264.203 194.108,269.944C194.108,270.308 194.127,270.666 194.163,271.02L182.984,277.355C182.043,277.888 181.461,278.887 181.461,279.969L181.461,332.533C180.229,332.699 178.984,332.822 177.727,332.9L177.278,264.344C181.673,263.128 184.904,259.097 184.904,254.317C184.904,248.576 180.243,243.914 174.502,243.914C168.76,243.914 164.099,248.576 164.099,254.317C164.099,258.929 167.107,262.844 171.267,264.206L171.716,332.926C170.309,332.851 168.917,332.719 167.543,332.533L167.543,279.969C167.543,278.887 166.961,277.888 166.019,277.355L154.84,271.02C154.876,270.666 154.895,270.308 154.895,269.944C154.895,264.203 150.234,259.542 144.493,259.542C138.751,259.542 134.09,264.203 134.09,269.944C134.09,275.686 138.751,280.347 144.493,280.347C147.705,280.347 150.58,278.887 152.489,276.596L161.532,281.721L161.532,300.3L154.837,296.506C154.873,296.152 154.892,295.794 154.892,295.431C154.892,289.689 150.231,285.028 144.489,285.028C138.748,285.028 134.087,289.689 134.087,295.431C134.087,301.172 138.748,305.833 144.489,305.833C147.702,305.833 150.576,304.374 152.485,302.082L161.529,307.207L161.529,331.35ZM204.511,289.787C207.598,289.787 210.105,292.294 210.105,295.381C210.105,298.468 207.598,300.975 204.511,300.975C201.423,300.975 198.917,298.468 198.917,295.381C198.917,292.294 201.423,289.787 204.511,289.787ZM204.511,264.351C207.598,264.351 210.105,266.857 210.105,269.944C210.105,273.032 207.598,275.538 204.511,275.538C201.423,275.538 198.917,273.032 198.917,269.944C198.917,266.857 201.423,264.351 204.511,264.351ZM174.502,248.723C177.589,248.723 180.096,251.229 180.096,254.317C180.096,257.404 177.589,259.911 174.502,259.911C171.414,259.911 168.908,257.404 168.908,254.317C168.908,251.229 171.414,248.723 174.502,248.723ZM144.493,264.351C147.58,264.351 150.087,266.857 150.087,269.944C150.087,273.032 147.58,275.538 144.493,275.538C141.405,275.538 138.899,273.032 138.899,269.944C138.899,266.857 141.405,264.351 144.493,264.351ZM144.489,289.837C147.577,289.837 150.083,292.343 150.083,295.431C150.083,298.518 147.577,301.025 144.489,301.025C141.402,301.025 138.895,298.518 138.895,295.431C138.895,292.343 141.402,289.837 144.489,289.837Z" style="fill:white;"/>
            </g>
        </g>
    </g>
</svg>
