<svg width="50" height="46" viewBox="0 0 50 46" fill="none" xmlns="http://www.w3.org/2000/svg">
<path d="M5 45.3121C3.625 45.3121 2.44792 44.8253 1.46875 43.8518C0.489583 42.8783 0 41.7081 0 40.341V5.54379C0 4.17675 0.489583 3.00649 1.46875 2.03299C2.44792 1.0595 3.625 0.572754 5 0.572754H45C46.375 0.572754 47.5521 1.0595 48.5312 2.03299C49.5104 3.00649 50 4.17675 50 5.54379V40.341C50 41.7081 49.5104 42.8783 48.5312 43.8518C47.5521 44.8253 46.375 45.3121 45 45.3121H5ZM5 40.341H45V5.54379H5V40.341ZM10 35.37H40V30.399H10V35.37ZM10 25.4279H20V10.5148H10V25.4279ZM25 25.4279H40V20.4569H25V25.4279ZM25 15.4859H40V10.5148H25V15.4859Z" fill="#289BE7"/>
</svg>
