<svg width="60" height="61" viewBox="0 0 60 61" fill="none" xmlns="http://www.w3.org/2000/svg">
<path d="M0 60.459V14.0627H13.3333V0.806641H46.6667V27.3188H60V60.459H33.3333V47.203H26.6667V60.459H0ZM6.66667 53.831H13.3333V47.203H6.66667V53.831ZM6.66667 40.5749H13.3333V33.9469H6.66667V40.5749ZM6.66667 27.3188H13.3333V20.6908H6.66667V27.3188ZM20 40.5749H26.6667V33.9469H20V40.5749ZM20 27.3188H26.6667V20.6908H20V27.3188ZM20 14.0627H26.6667V7.43468H20V14.0627ZM33.3333 40.5749H40V33.9469H33.3333V40.5749ZM33.3333 27.3188H40V20.6908H33.3333V27.3188ZM33.3333 14.0627H40V7.43468H33.3333V14.0627ZM46.6667 53.831H53.3333V47.203H46.6667V53.831ZM46.6667 40.5749H53.3333V33.9469H46.6667V40.5749Z" fill="#289BE7"/>
</svg>
