<svg width="80" height="59" viewBox="0 0 80 59" fill="none" xmlns="http://www.w3.org/2000/svg">
<path d="M59.573 13.5097C55.8602 13.5097 52.3795 14.4943 49.3794 16.2141C49.3372 16.239 49.2952 16.2663 49.2531 16.291C49.2428 16.2651 49.2337 16.2402 49.2234 16.2141C45.4389 6.90105 36.2594 0.331055 25.5375 0.331055C11.4331 0.331055 0 11.6981 0 25.7197C0 34.9955 5.00578 43.109 12.4758 47.538V56.5353C12.4758 56.5353 24.3403 55.8597 37.5648 48.1207C38.5711 47.5866 39.5373 46.9858 40.457 46.3271C41.0887 45.8744 41.6977 45.3936 42.2827 44.8866C42.318 44.8571 42.3498 44.8266 42.3852 44.7983C42.4033 44.8266 42.4216 44.8572 42.4398 44.8866C43.8205 46.998 45.5858 48.837 47.638 50.3069C48.3745 50.8343 49.1461 51.3129 49.9508 51.7429C60.5303 57.9315 70.0217 58.4737 70.0217 58.4737V51.2765C75.9994 47.7325 80 41.2417 80 33.8207C80 22.6031 70.8558 13.5097 59.573 13.5097ZM43.4561 35.0202C42.5239 36.7913 41.3197 38.423 39.9016 39.8477C39.1106 40.6432 38.2523 41.3741 37.3419 42.0304C36.6134 42.5521 35.8417 43.0296 35.0519 43.4518L34.9563 43.5017L34.8628 43.557C28.6995 47.1624 22.8742 49.0599 19.0716 50.0151C18.6333 50.126 18.2098 50.228 17.8036 50.3184V44.5313L15.2052 42.9901C12.2492 41.2361 9.77141 38.7455 8.04359 35.7874C6.26813 32.7456 5.32797 29.2639 5.32797 25.7197C5.32797 20.3536 7.43016 15.3066 11.2466 11.5125C15.0641 7.71832 20.1394 5.62816 25.5377 5.62816C30.935 5.62816 36.0102 7.71817 39.8266 11.5125C42.1508 13.8234 43.8398 16.598 44.805 19.6261C45.4253 21.5713 45.7452 23.6217 45.7452 25.7197C45.745 29.0046 44.9756 32.1335 43.4561 35.0202ZM65.2309 29.5365C66.1345 29.5365 66.8641 30.263 66.8641 31.1605C66.8641 32.0567 66.1345 32.7843 65.2309 32.7843C64.3294 32.7843 63.5998 32.0567 63.5998 31.1605C63.5998 30.263 64.3294 29.5365 65.2309 29.5365ZM54.7322 29.5365C55.6359 29.5365 56.3656 30.263 56.3656 31.1605C56.3656 32.0567 55.6359 32.7843 54.7322 32.7843C53.8308 32.7843 53.1012 32.0567 53.1012 31.1605C53.1011 30.263 53.8308 29.5365 54.7322 29.5365ZM65.3744 39.2783C63.8094 40.3998 61.8892 41.0595 59.8144 41.0595C56.5705 41.0595 53.7069 39.4459 51.9892 36.9836H67.6394C67.0202 37.8697 66.253 38.647 65.3744 39.2783Z" fill="#289BE7"/>
<path d="M18.7745 25.749C19.9752 25.749 20.9472 24.7816 20.9472 23.5876C20.9472 22.3938 19.9752 21.4263 18.7745 21.4263C17.5725 21.4263 16.5995 22.3938 16.5995 23.5876C16.5994 24.7816 17.5725 25.749 18.7745 25.749Z" fill="#289BE7"/>
<path d="M32.7503 25.749C33.95 25.749 34.9242 24.7816 34.9242 23.5876C34.9242 22.3938 33.95 21.4263 32.7503 21.4263C31.5495 21.4263 30.5753 22.3938 30.5753 23.5876C30.5753 24.7816 31.5495 25.749 32.7503 25.749Z" fill="#289BE7"/>
<path d="M25.5375 36.7673C28.2998 36.7673 30.8575 35.887 32.9392 34.3944C34.1116 33.5548 35.1314 32.5205 35.9555 31.3403H15.1197C17.4063 34.6186 21.2192 36.7673 25.5375 36.7673Z" fill="#289BE7"/>
</svg>
