<svg width="60" height="59" viewBox="0 0 60 59" fill="none" xmlns="http://www.w3.org/2000/svg">
<path d="M47.125 53.9564C46.7917 53.9564 46.4792 53.9053 46.1875 53.803C45.8958 53.7007 45.625 53.5268 45.375 53.2812L32.625 40.7589C32.375 40.5134 32.1979 40.2474 32.0938 39.9609C31.9896 39.6744 31.9375 39.3675 31.9375 39.0401C31.9375 38.7128 31.9896 38.4058 32.0938 38.1194C32.1979 37.8329 32.375 37.5669 32.625 37.3214L37.9375 32.1038C38.1875 31.8582 38.4583 31.6843 38.75 31.582C39.0417 31.4797 39.3542 31.4285 39.6875 31.4285C40.0208 31.4285 40.3333 31.4797 40.625 31.582C40.9167 31.6843 41.1875 31.8582 41.4375 32.1038L54.1875 44.6261C54.4375 44.8716 54.6146 45.1376 54.7188 45.4241C54.8229 45.7105 54.875 46.0175 54.875 46.3448C54.875 46.6722 54.8229 46.9791 54.7188 47.2656C54.6146 47.552 54.4375 47.818 54.1875 48.0636L48.875 53.2812C48.625 53.5268 48.3542 53.7007 48.0625 53.803C47.7708 53.9053 47.4583 53.9564 47.125 53.9564ZM47.125 48.125L48.9375 46.3448L39.75 37.3214L37.9375 39.1015L47.125 48.125ZM12.8125 54.0178C12.4792 54.0178 12.1562 53.9564 11.8438 53.8337C11.5312 53.7109 11.25 53.5268 11 53.2812L5.75 48.125C5.5 47.8794 5.3125 47.6032 5.1875 47.2963C5.0625 46.9894 5 46.6722 5 46.3448C5 46.0175 5.0625 45.7105 5.1875 45.4241C5.3125 45.1376 5.5 44.8716 5.75 44.6261L19 31.6127H24.3125L26.4375 29.5256L16.125 19.3973H12.5625L5 11.9698L12.0625 5.03345L19.625 12.4609V15.9598L29.9375 26.0881L37.1875 18.9676L34.5 16.3281L38 12.8906H30.9375L29.1875 11.1718L38.0625 2.45532L39.8125 4.17407V11.1105L43.3125 7.67296L52.1875 16.3895C52.8958 17.0852 53.4375 17.8729 53.8125 18.7528C54.1875 19.6326 54.375 20.5636 54.375 21.5457C54.375 22.5279 54.1875 23.4691 53.8125 24.3694C53.4375 25.2697 52.8958 26.0677 52.1875 26.7634L46.875 21.5457L43.375 24.9832L40.75 22.4051L27.8125 35.1116V40.2678L14.5625 53.2812C14.3125 53.5268 14.0417 53.7109 13.75 53.8337C13.4583 53.9564 13.1458 54.0178 12.8125 54.0178ZM12.8125 48.125L23.4375 37.6897V35.9096H21.625L11 46.3448L12.8125 48.125ZM12.8125 48.125L11 46.3448L11.9375 47.2042L12.8125 48.125Z" fill="#289BE7"/>
</svg>
