<svg width="259" height="259" viewBox="0 0 259 259" fill="none" xmlns="http://www.w3.org/2000/svg">
<g clip-path="url(#clip0_458_160)">
<path fill-rule="evenodd" clip-rule="evenodd" d="M96.4109 253.609C40.9767 239.203 -0.00158691 188.784 -0.00158691 128.868C-0.00158691 57.7416 57.7423 -0.00231934 128.869 -0.00231934C199.995 -0.00231934 257.739 57.7416 257.739 128.868C257.739 188.784 216.761 239.203 161.326 253.609V193.07L183.958 180.246C188.735 185.981 195.926 189.632 203.966 189.632C218.332 189.632 229.996 177.969 229.996 163.603C229.996 149.237 218.332 137.574 203.966 137.574C189.598 137.574 177.934 149.237 177.934 163.603C177.934 164.511 177.982 165.41 178.072 166.293L161.326 175.782V129.421L183.958 116.597C188.735 122.329 195.926 125.983 203.966 125.983C218.332 125.983 229.996 114.319 229.996 99.951C229.996 85.5851 218.332 73.9217 203.966 73.9217C189.598 73.9217 177.934 85.5851 177.934 99.951C177.934 100.862 177.982 101.758 178.072 102.643L150.098 118.496C147.744 119.83 146.287 122.329 146.287 125.037V256.57C143.205 256.985 140.089 257.293 136.944 257.488L135.82 85.9379C146.818 82.895 154.903 72.8081 154.903 60.847C154.903 46.4811 143.24 34.8152 128.874 34.8152C114.505 34.8152 102.842 46.4811 102.842 60.847C102.842 72.3877 110.369 82.1844 120.779 85.5925L121.902 257.553C118.381 257.365 114.898 257.035 111.46 256.57V125.037C111.46 122.329 110.004 119.83 107.646 118.496L79.6728 102.643C79.7628 101.758 79.8104 100.862 79.8104 99.951C79.8104 85.5851 68.147 73.9217 53.7811 73.9217C39.4127 73.9217 27.7493 85.5851 27.7493 99.951C27.7493 114.319 39.4127 125.983 53.7811 125.983C61.8186 125.983 69.0128 122.329 73.7898 116.597L96.4184 129.421C96.4184 129.421 96.4184 150.033 96.4184 175.912L79.6653 166.418C79.7554 165.532 79.8029 164.636 79.8029 163.728C79.8029 149.36 68.1395 137.696 53.7711 137.696C39.4052 137.696 27.7418 149.36 27.7418 163.728C27.7418 178.094 39.4052 189.757 53.7711 189.757C61.8111 189.757 69.0028 186.106 73.7798 180.371L96.4109 193.195C96.4109 193.195 96.4109 221.617 96.4109 253.609ZM203.966 149.605C211.691 149.605 217.964 155.878 217.964 163.603C217.964 171.328 211.691 177.601 203.966 177.601C196.239 177.601 189.968 171.328 189.968 163.603C189.968 155.878 196.239 149.605 203.966 149.605ZM203.966 85.9554C211.691 85.9554 217.964 92.2263 217.964 99.951C217.964 107.678 211.691 113.949 203.966 113.949C196.239 113.949 189.968 107.678 189.968 99.951C189.968 92.2263 196.239 85.9554 203.966 85.9554ZM128.874 46.8489C136.598 46.8489 142.872 53.1198 142.872 60.847C142.872 68.5717 136.598 74.8451 128.874 74.8451C121.146 74.8451 114.876 68.5717 114.876 60.847C114.876 53.1198 121.146 46.8489 128.874 46.8489ZM53.7811 85.9554C61.5058 85.9554 67.7792 92.2263 67.7792 99.951C67.7792 107.678 61.5058 113.949 53.7811 113.949C46.0539 113.949 39.783 107.678 39.783 99.951C39.783 92.2263 46.0539 85.9554 53.7811 85.9554ZM53.7711 149.73C61.4983 149.73 67.7691 156.001 67.7691 163.728C67.7691 171.453 61.4983 177.726 53.7711 177.726C46.0464 177.726 39.773 171.453 39.773 163.728C39.773 156.001 46.0464 149.73 53.7711 149.73Z" fill="#289BE7"/>
</g>
<defs>
<clipPath id="clip0_458_160">
<rect width="259" height="259" fill="white"/>
</clipPath>
</defs>
</svg>
